<svg height="2094" width="720" xmlns="http://www.w3.org/2000/svg">
<rect height="2094" fill="#555" width="720"></rect>
<text fill="#7f7" font-family="Courier New" font-size="12" xml:space="preserve">
<tspan x="10" y="26"></tspan>
<tspan x="10" y="42">&gt; npmdoc-pre-commit@0.0.1 test /home/travis/build/npmdoc/node-npmdoc-pre-commit</tspan>
<tspan x="10" y="58">&gt; (set -e; export PORT=$(utility2 shServerPortRandom); utility2 test test.js)</tspan>
<tspan x="10" y="74"></tspan>
<tspan x="10" y="90"></tspan>
<tspan x="10" y="106">[MODE_BUILD=npmTest] - 2017-04-02T06:38:14Z - npm-testing /home/travis/build/npmdoc/node-npmdoc-\</tspan>
<tspan x="10" y="122">pre-commit</tspan>
<tspan x="10" y="138"></tspan>
<tspan x="10" y="154"></tspan>
<tspan x="10" y="170">covering $ /home/travis/.nvm/versions/node/v6.10.1/bin/node /home/travis/build/npmdoc/node-npmdo\</tspan>
<tspan x="10" y="186">c-pre-commit/test.js</tspan>
<tspan x="10" y="202">merging file:///home/travis/build/npmdoc/node-npmdoc-pre-commit/tmp/build/test-report.json to te\</tspan>
<tspan x="10" y="218">st-report</tspan>
<tspan x="10" y="234">&gt; server listening on http-port 36381</tspan>
<tspan x="10" y="250">pre-commit:</tspan>
<tspan x="10" y="266">pre-commit: Detected an existing git pre-commit hook</tspan>
<tspan x="10" y="282">pre-commit: Old pre-commit hook backuped to pre-commit.old</tspan>
<tspan x="10" y="298">pre-commit:</tspan>
<tspan x="10" y="314">created apidoc file:///home/travis/build/npmdoc/node-npmdoc-pre-commit/tmp/build/apidoc.html</tspan>
<tspan x="10" y="330"></tspan>
<tspan x="10" y="346"></tspan>
<tspan x="10" y="362">browserTest - created electron entry-page /home/travis/build/npmdoc/node-npmdoc-pre-commit/tmp/e\</tspan>
<tspan x="10" y="378">lectron.15b2d62b2620.81eaea117799d.html</tspan>
<tspan x="10" y="394"></tspan>
<tspan x="10" y="410">[node test-case 1 of 6 passed] - testCase_buildLib_default</tspan>
<tspan x="10" y="426">[node test-case 2 of 6 passed] - testCase_buildReadme_default</tspan>
<tspan x="10" y="442">[node test-case 3 of 6 passed] - testCase_buildTest_default</tspan>
<tspan x="10" y="458"></tspan>
<tspan x="10" y="474">browserTest - created electron entry-page /home/travis/build/npmdoc/node-npmdoc-pre-commit/tmp/e\</tspan>
<tspan x="10" y="490">lectron.15b2d62b28b0.4966c528666b5.html</tspan>
<tspan x="10" y="506"></tspan>
<tspan x="10" y="522">Xlib:  extension "RANDR" missing on display ":99.0".</tspan>
<tspan x="10" y="538">Xlib:  extension "RANDR" missing on display ":99.0".</tspan>
<tspan x="10" y="554">&gt; merging file:///home/travis/build/npmdoc/node-npmdoc-pre-commit/tmp/build/test-report.json to \</tspan>
<tspan x="10" y="570">test-report</tspan>
<tspan x="10" y="586">server listening on http-port 38509</tspan>
<tspan x="10" y="602">Xlib:  extension "RANDR" missing on display ":99.0".</tspan>
<tspan x="10" y="618">[4867:0402/063815:WARNING:audio_manager.cc(314)] Multiple instances of AudioManager detected</tspan>
<tspan x="10" y="634">[4867:0402/063815:WARNING:audio_manager.cc(275)] Multiple instances of AudioManager detected</tspan>
<tspan x="10" y="650">[4901:0402/063815:ERROR:sandbox_linux.cc(343)] InitializeSandbox() called with multiple threads \</tspan>
<tspan x="10" y="666">in process gpu-process. </tspan>
<tspan x="10" y="682">[4867:0402/063815:ERROR:browser_gpu_channel_host_factory.cc(131)] Failed to create channel.</tspan>
<tspan x="10" y="698">merging file:///home/travis/build/npmdoc/node-npmdoc-pre-commit/tmp/build/test-report.json to te\</tspan>
<tspan x="10" y="714">st-report</tspan>
<tspan x="10" y="730">Xlib:  extension "RANDR" missing on display ":99.0".</tspan>
<tspan x="10" y="746">[4865:0402/063815:WARNING:audio_manager.cc(314)] Multiple instances of AudioManager detected</tspan>
<tspan x="10" y="762">[4865:0402/063815:WARNING:audio_manager.cc(275)] Multiple instances of AudioManager detected</tspan>
<tspan x="10" y="778">[4930:0402/063815:ERROR:sandbox_linux.cc(343)] InitializeSandbox() called with multiple threads \</tspan>
<tspan x="10" y="794">in process gpu-process. </tspan>
<tspan x="10" y="810">[4865:0402/063815:ERROR:browser_gpu_channel_host_factory.cc(131)] Failed to create channel.</tspan>
<tspan x="10" y="826"></tspan>
<tspan x="10" y="842">browserTest - opened url http://127.0.0.1:36381?modeTest=1</tspan>
<tspan x="10" y="858"></tspan>
<tspan x="10" y="874"></tspan>
<tspan x="10" y="890">browserTest - opened url /home/travis/build/npmdoc/node-npmdoc-pre-commit/tmp/build/apidoc.html</tspan>
<tspan x="10" y="906"></tspan>
<tspan x="10" y="922">[4867:0402/063817:INFO:CONSOLE(245)] "----------|-----------|-----------|-----------|-----------\</tspan>
<tspan x="10" y="938">|</tspan>
<tspan x="10" y="954">File      |   % Stmts |% Branches |   % Funcs |   % Lines |</tspan>
<tspan x="10" y="970">----------|-----------|-----------|-----------|-----------|</tspan>
<tspan x="10" y="986">----------|-----------|-----------|-----------|-----------|</tspan>
<tspan x="10" y="1002">All files |       100 |       100 |       100 |       100 |</tspan>
<tspan x="10" y="1018">----------|-----------|-----------|-----------|-----------|</tspan>
<tspan x="10" y="1034">", source: file:///home/travis/build/npmdoc/node-npmdoc-pre-commit/tmp/electron.15b2d62b28b0.496\</tspan>
<tspan x="10" y="1050">6c528666b5.html (245)</tspan>
<tspan x="10" y="1066">[4867:0402/063817:INFO:CONSOLE(245)] "created coverage file:///tmp/build/coverage.html/index.htm\</tspan>
<tspan x="10" y="1082">l", source: file:///home/travis/build/npmdoc/node-npmdoc-pre-commit/tmp/electron.15b2d62b28b0.49\</tspan>
<tspan x="10" y="1098">66c528666b5.html (245)</tspan>
<tspan x="10" y="1114">[node test-case 4 of 6 passed] - testCase_buildApp_default</tspan>
<tspan x="10" y="1130"></tspan>
<tspan x="10" y="1146">browserTest - created screen-capture file:///home/travis/build/npmdoc/node-npmdoc-pre-commit/tmp\</tspan>
<tspan x="10" y="1162">/build/screen-capture.npmTest.browser..png</tspan>
<tspan x="10" y="1178"></tspan>
<tspan x="10" y="1194">browserTest - created screen-capture file:///home/travis/build/npmdoc/node-npmdoc-pre-commit/tmp\</tspan>
<tspan x="10" y="1210">/build/screen-capture.npmTest.browser..html</tspan>
<tspan x="10" y="1226"></tspan>
<tspan x="10" y="1242">browserTest - exit-code 0 - http://127.0.0.1:36381?modeTest=1</tspan>
<tspan x="10" y="1258"></tspan>
<tspan x="10" y="1274"></tspan>
<tspan x="10" y="1290">browserTest - merged coverage from /home/travis/build/npmdoc/node-npmdoc-pre-commit/tmp/coverage\</tspan>
<tspan x="10" y="1306">.npmTest.browser.%2F.json</tspan>
<tspan x="10" y="1322"></tspan>
<tspan x="10" y="1338"></tspan>
<tspan x="10" y="1354">browserTest - merging test-report from /home/travis/build/npmdoc/node-npmdoc-pre-commit/tmp/test\</tspan>
<tspan x="10" y="1370">-report.npmTest.browser.%2F.json</tspan>
<tspan x="10" y="1386"></tspan>
<tspan x="10" y="1402">[node test-case 5 of 6 passed] - testCase_webpage_default</tspan>
<tspan x="10" y="1418"></tspan>
<tspan x="10" y="1434">browserTest - created screen-capture file:///home/travis/build/npmdoc/node-npmdoc-pre-commit/tmp\</tspan>
<tspan x="10" y="1450">/build/screen-capture.npmTest.browser._2Fhome_2Ftravis_2Fbuild_2Fnpmdoc_2Fnode-npmdoc-pre-commit\</tspan>
<tspan x="10" y="1466">_2Ftmp_2Fbuild_2Fapidoc.html.png</tspan>
<tspan x="10" y="1482"></tspan>
<tspan x="10" y="1498">browserTest - created screen-capture file:///home/travis/build/npmdoc/node-npmdoc-pre-commit/tmp\</tspan>
<tspan x="10" y="1514">/build/screen-capture.npmTest.browser._2Fhome_2Ftravis_2Fbuild_2Fnpmdoc_2Fnode-npmdoc-pre-commit\</tspan>
<tspan x="10" y="1530">_2Ftmp_2Fbuild_2Fapidoc.html.html</tspan>
<tspan x="10" y="1546"></tspan>
<tspan x="10" y="1562">browserTest - exit-code 0 - /home/travis/build/npmdoc/node-npmdoc-pre-commit/tmp/build/apidoc.ht\</tspan>
<tspan x="10" y="1578">ml</tspan>
<tspan x="10" y="1594"></tspan>
<tspan x="10" y="1610">[node test-case 6 of 6 passed] - testCase_buildApidoc_default</tspan>
<tspan x="10" y="1626">-------------------------------|-----------|-----------|-----------|-----------|</tspan>
<tspan x="10" y="1642">File                           |   % Stmts |% Branches |   % Funcs |   % Lines |</tspan>
<tspan x="10" y="1658">-------------------------------|-----------|-----------|-----------|-----------|</tspan>
<tspan x="10" y="1674">   node-npmdoc-pre-commit/     |       100 |       100 |       100 |       100 |</tspan>
<tspan x="10" y="1690">      example.js               |       100 |       100 |       100 |       100 |</tspan>
<tspan x="10" y="1706">      lib.npmdoc_pre_commit.js |       100 |       100 |       100 |       100 |</tspan>
<tspan x="10" y="1722">      test.js                  |       100 |       100 |       100 |       100 |</tspan>
<tspan x="10" y="1738">-------------------------------|-----------|-----------|-----------|-----------|</tspan>
<tspan x="10" y="1754">All files                      |       100 |       100 |       100 |       100 |</tspan>
<tspan x="10" y="1770">-------------------------------|-----------|-----------|-----------|-----------|</tspan>
<tspan x="10" y="1786"></tspan>
<tspan x="10" y="1802">created coverage file:///home/travis/build/npmdoc/node-npmdoc-pre-commit/tmp/build/coverage.html\</tspan>
<tspan x="10" y="1818">/index.html</tspan>
<tspan x="10" y="1834">merging file:///home/travis/build/npmdoc/node-npmdoc-pre-commit/tmp/build/test-report.json to te\</tspan>
<tspan x="10" y="1850">st-report</tspan>
<tspan x="10" y="1866"></tspan>
<tspan x="10" y="1882">-------------------------------------------------------</tspan>
<tspan x="10" y="1898">| test-report - buildNpmdoc - node - linux v6.10.1 - 2017-04-02T06:37:40.755Z</tspan>
<tspan x="10" y="1914">|   43362 ms            0 failed        6 passed      |</tspan>
<tspan x="10" y="1930">-------------------------------------------------------</tspan>
<tspan x="10" y="1946"></tspan>
<tspan x="10" y="1962">created test-report file:///home/travis/build/npmdoc/node-npmdoc-pre-commit/tmp/build/test-repor\</tspan>
<tspan x="10" y="1978">t.html</tspan>
<tspan x="10" y="1994"></tspan>
<tspan x="10" y="2010"></tspan>
<tspan x="10" y="2026">npmTest - 0 failed tests</tspan>
<tspan x="10" y="2042"></tspan>
<tspan x="10" y="2058"></tspan>
<tspan x="10" y="2074">[MODE_BUILD=npmTest] - 2017-04-02T06:38:27Z - EXIT_CODE - 0</tspan>
</text>
</svg>
