<svg height="2094" width="720" xmlns="http://www.w3.org/2000/svg">
<rect height="2094" fill="#555" width="720"></rect>
<text fill="#7f7" font-family="Courier New" font-size="12" xml:space="preserve">
<tspan x="10" y="26"></tspan>
<tspan x="10" y="42">&gt; npmdoc-pre-commit@0.0.2 test /home/travis/build/npmdoc/node-npmdoc-pre-commit</tspan>
<tspan x="10" y="58">&gt; (set -e; export PORT=$(utility2 shServerPortRandom); utility2 test test.js)</tspan>
<tspan x="10" y="74"></tspan>
<tspan x="10" y="90"></tspan>
<tspan x="10" y="106">[MODE_BUILD=npmTest] - 2017-04-08T07:23:37Z - npm-testing /home/travis/build/npmdoc/node-npmdoc-\</tspan>
<tspan x="10" y="122">pre-commit</tspan>
<tspan x="10" y="138"></tspan>
<tspan x="10" y="154"></tspan>
<tspan x="10" y="170">covering $ /home/travis/.nvm/versions/node/v6.10.2/bin/node /home/travis/build/npmdoc/node-npmdo\</tspan>
<tspan x="10" y="186">c-pre-commit/test.js</tspan>
<tspan x="10" y="202">merging file:///home/travis/build/npmdoc/node-npmdoc-pre-commit/tmp/build/test-report.json to te\</tspan>
<tspan x="10" y="218">st-report</tspan>
<tspan x="10" y="234">&gt; server listening on http-port 41148</tspan>
<tspan x="10" y="250">pre-commit:</tspan>
<tspan x="10" y="266">pre-commit: Detected an existing git pre-commit hook</tspan>
<tspan x="10" y="282">pre-commit: Old pre-commit hook backuped to pre-commit.old</tspan>
<tspan x="10" y="298">pre-commit:</tspan>
<tspan x="10" y="314">created apidoc file:///home/travis/build/npmdoc/node-npmdoc-pre-commit/tmp/build/apidoc.html</tspan>
<tspan x="10" y="330"></tspan>
<tspan x="10" y="346"></tspan>
<tspan x="10" y="362">browserTest - created electron entry-page /home/travis/build/npmdoc/node-npmdoc-pre-commit/tmp/e\</tspan>
<tspan x="10" y="378">lectron.15b4c7268b10.15878f02bdcd3.html</tspan>
<tspan x="10" y="394"></tspan>
<tspan x="10" y="410">[node test-case 1 of 6 passed] - testCase_buildLib_default</tspan>
<tspan x="10" y="426">[node test-case 2 of 6 passed] - testCase_buildReadme_default</tspan>
<tspan x="10" y="442">[node test-case 3 of 6 passed] - testCase_buildTest_default</tspan>
<tspan x="10" y="458"></tspan>
<tspan x="10" y="474">browserTest - created electron entry-page /home/travis/build/npmdoc/node-npmdoc-pre-commit/tmp/e\</tspan>
<tspan x="10" y="490">lectron.15b4c7268dc0.5092827305a33.html</tspan>
<tspan x="10" y="506"></tspan>
<tspan x="10" y="522">Xlib:  extension "RANDR" missing on display ":99.0".</tspan>
<tspan x="10" y="538">Xlib:  extension "RANDR" missing on display ":99.0".</tspan>
<tspan x="10" y="554">&gt; server listening on http-port 49816</tspan>
<tspan x="10" y="570">merging file:///home/travis/build/npmdoc/node-npmdoc-pre-commit/tmp/build/test-report.json to te\</tspan>
<tspan x="10" y="586">st-report</tspan>
<tspan x="10" y="602">merging file:///home/travis/build/npmdoc/node-npmdoc-pre-commit/tmp/build/test-report.json to te\</tspan>
<tspan x="10" y="618">st-report</tspan>
<tspan x="10" y="634">Xlib:  extension "RANDR" missing on display ":99.0".</tspan>
<tspan x="10" y="650">Xlib:  extension "RANDR" missing on display ":99.0".</tspan>
<tspan x="10" y="666">[4823:0408/072339:WARNING:audio_manager.cc(314)] Multiple instances of AudioManager detected</tspan>
<tspan x="10" y="682">[4823:0408/072339:WARNING:audio_manager.cc(275)] Multiple instances of AudioManager detected</tspan>
<tspan x="10" y="698">[4822:0408/072339:WARNING:audio_manager.cc(314)] Multiple instances of AudioManager detected</tspan>
<tspan x="10" y="714">[4822:0408/072339:WARNING:audio_manager.cc(275)] Multiple instances of AudioManager detected</tspan>
<tspan x="10" y="730">[4857:0408/072339:ERROR:sandbox_linux.cc(343)] InitializeSandbox() called with multiple threads \</tspan>
<tspan x="10" y="746">in process gpu-process. </tspan>
<tspan x="10" y="762">[4876:0408/072339:ERROR:sandbox_linux.cc(343)] InitializeSandbox() called with multiple threads \</tspan>
<tspan x="10" y="778">in process gpu-process. </tspan>
<tspan x="10" y="794">[4823:0408/072339:ERROR:browser_gpu_channel_host_factory.cc(131)] Failed to create channel.</tspan>
<tspan x="10" y="810">[4822:0408/072339:ERROR:browser_gpu_channel_host_factory.cc(131)] Failed to create channel.</tspan>
<tspan x="10" y="826"></tspan>
<tspan x="10" y="842">browserTest - opened url /home/travis/build/npmdoc/node-npmdoc-pre-commit/tmp/build/apidoc.html</tspan>
<tspan x="10" y="858"></tspan>
<tspan x="10" y="874"></tspan>
<tspan x="10" y="890">browserTest - opened url http://127.0.0.1:41148?modeTest=1</tspan>
<tspan x="10" y="906"></tspan>
<tspan x="10" y="922">[4822:0408/072341:INFO:CONSOLE(248)] "----------|-----------|-----------|-----------|-----------\</tspan>
<tspan x="10" y="938">|</tspan>
<tspan x="10" y="954">File      |   % Stmts |% Branches |   % Funcs |   % Lines |</tspan>
<tspan x="10" y="970">----------|-----------|-----------|-----------|-----------|</tspan>
<tspan x="10" y="986">----------|-----------|-----------|-----------|-----------|</tspan>
<tspan x="10" y="1002">All files |       100 |       100 |       100 |       100 |</tspan>
<tspan x="10" y="1018">----------|-----------|-----------|-----------|-----------|</tspan>
<tspan x="10" y="1034">", source: file:///home/travis/build/npmdoc/node-npmdoc-pre-commit/tmp/electron.15b4c7268dc0.509\</tspan>
<tspan x="10" y="1050">2827305a33.html (248)</tspan>
<tspan x="10" y="1066">[4822:0408/072341:INFO:CONSOLE(248)] "created coverage file:///tmp/build/coverage.html/index.htm\</tspan>
<tspan x="10" y="1082">l", source: file:///home/travis/build/npmdoc/node-npmdoc-pre-commit/tmp/electron.15b4c7268dc0.50\</tspan>
<tspan x="10" y="1098">92827305a33.html (248)</tspan>
<tspan x="10" y="1114">[node test-case 4 of 6 passed] - testCase_buildApp_default</tspan>
<tspan x="10" y="1130"></tspan>
<tspan x="10" y="1146">browserTest - created screenCapture file:///home/travis/build/npmdoc/node-npmdoc-pre-commit/tmp/\</tspan>
<tspan x="10" y="1162">build/screenCapture.npmTest.browser.%2Fhome%2Ftravis%2Fbuild%2Fnpmdoc%2Fnode-npmdoc-pre-commit%2\</tspan>
<tspan x="10" y="1178">Ftmp%2Fbuild%2Fapidoc.html.png</tspan>
<tspan x="10" y="1194"></tspan>
<tspan x="10" y="1210">browserTest - created screenCapture file:///home/travis/build/npmdoc/node-npmdoc-pre-commit/tmp/\</tspan>
<tspan x="10" y="1226">build/screenCapture.npmTest.browser.%2Fhome%2Ftravis%2Fbuild%2Fnpmdoc%2Fnode-npmdoc-pre-commit%2\</tspan>
<tspan x="10" y="1242">Ftmp%2Fbuild%2Fapidoc.html.html</tspan>
<tspan x="10" y="1258"></tspan>
<tspan x="10" y="1274">browserTest - created screenCapture file:///home/travis/build/npmdoc/node-npmdoc-pre-commit/tmp/\</tspan>
<tspan x="10" y="1290">build/screenCapture.npmTest.browser.%2F.png</tspan>
<tspan x="10" y="1306"></tspan>
<tspan x="10" y="1322">browserTest - created screenCapture file:///home/travis/build/npmdoc/node-npmdoc-pre-commit/tmp/\</tspan>
<tspan x="10" y="1338">build/screenCapture.npmTest.browser.%2F.html</tspan>
<tspan x="10" y="1354"></tspan>
<tspan x="10" y="1370">browserTest - exit-code 0 - /home/travis/build/npmdoc/node-npmdoc-pre-commit/tmp/build/apidoc.ht\</tspan>
<tspan x="10" y="1386">ml</tspan>
<tspan x="10" y="1402"></tspan>
<tspan x="10" y="1418">[node test-case 5 of 6 passed] - testCase_buildApidoc_default</tspan>
<tspan x="10" y="1434"></tspan>
<tspan x="10" y="1450">browserTest - exit-code 0 - http://127.0.0.1:41148?modeTest=1</tspan>
<tspan x="10" y="1466"></tspan>
<tspan x="10" y="1482"></tspan>
<tspan x="10" y="1498">browserTest - merged coverage from /home/travis/build/npmdoc/node-npmdoc-pre-commit/tmp/coverage\</tspan>
<tspan x="10" y="1514">.npmTest.browser.%2F.json</tspan>
<tspan x="10" y="1530"></tspan>
<tspan x="10" y="1546"></tspan>
<tspan x="10" y="1562">browserTest - merging test-report from /home/travis/build/npmdoc/node-npmdoc-pre-commit/tmp/test\</tspan>
<tspan x="10" y="1578">-report.npmTest.browser.%2F.json</tspan>
<tspan x="10" y="1594"></tspan>
<tspan x="10" y="1610">[node test-case 6 of 6 passed] - testCase_webpage_default</tspan>
<tspan x="10" y="1626">-------------------------------|-----------|-----------|-----------|-----------|</tspan>
<tspan x="10" y="1642">File                           |   % Stmts |% Branches |   % Funcs |   % Lines |</tspan>
<tspan x="10" y="1658">-------------------------------|-----------|-----------|-----------|-----------|</tspan>
<tspan x="10" y="1674">   node-npmdoc-pre-commit/     |       100 |       100 |       100 |       100 |</tspan>
<tspan x="10" y="1690">      example.js               |       100 |       100 |       100 |       100 |</tspan>
<tspan x="10" y="1706">      lib.npmdoc_pre_commit.js |       100 |       100 |       100 |       100 |</tspan>
<tspan x="10" y="1722">      test.js                  |       100 |       100 |       100 |       100 |</tspan>
<tspan x="10" y="1738">-------------------------------|-----------|-----------|-----------|-----------|</tspan>
<tspan x="10" y="1754">All files                      |       100 |       100 |       100 |       100 |</tspan>
<tspan x="10" y="1770">-------------------------------|-----------|-----------|-----------|-----------|</tspan>
<tspan x="10" y="1786"></tspan>
<tspan x="10" y="1802">created coverage file:///home/travis/build/npmdoc/node-npmdoc-pre-commit/tmp/build/coverage.html\</tspan>
<tspan x="10" y="1818">/index.html</tspan>
<tspan x="10" y="1834">merging file:///home/travis/build/npmdoc/node-npmdoc-pre-commit/tmp/build/test-report.json to te\</tspan>
<tspan x="10" y="1850">st-report</tspan>
<tspan x="10" y="1866"></tspan>
<tspan x="10" y="1882">-------------------------------------------------------</tspan>
<tspan x="10" y="1898">| test-report - buildNpmdoc - node - linux v6.10.2 - 2017-04-08T07:23:17.124Z</tspan>
<tspan x="10" y="1914">|   35820 ms            0 failed        6 passed      |</tspan>
<tspan x="10" y="1930">-------------------------------------------------------</tspan>
<tspan x="10" y="1946"></tspan>
<tspan x="10" y="1962">created test-report file:///home/travis/build/npmdoc/node-npmdoc-pre-commit/tmp/build/test-repor\</tspan>
<tspan x="10" y="1978">t.html</tspan>
<tspan x="10" y="1994"></tspan>
<tspan x="10" y="2010"></tspan>
<tspan x="10" y="2026">npmTest - 0 failed tests</tspan>
<tspan x="10" y="2042"></tspan>
<tspan x="10" y="2058"></tspan>
<tspan x="10" y="2074">[MODE_BUILD=npmTest] - 2017-04-08T07:23:56Z - EXIT_CODE - 0</tspan>
</text>
</svg>
